<?xml version="1.0" encoding="UTF-8" standalone="no" ?>
<!DOCTYPE svg PUBLIC "-//W3C//DTD SVG 1.1//EN" "http://www.w3.org/Graphics/SVG/1.1/DTD/svg11.dtd">
<svg xmlns="http://www.w3.org/2000/svg" xmlns:xlink="http://www.w3.org/1999/xlink" version="1.1" width="640" height="480" viewBox="0 0 640 480" xml:space="preserve">
<desc>Created with Fabric.js 3.6.6</desc>
<defs>
</defs>
<g transform="matrix(4.19 0 0 4.19 320.25 365.58)"  >
<g style=""   >
		<g transform="matrix(1 0 0 1 0 0)"  >
<rect style="stroke: none; stroke-width: 1; stroke-dasharray: none; stroke-linecap: butt; stroke-dashoffset: 0; stroke-linejoin: miter; stroke-miterlimit: 4; fill: rgb(255,255,255); fill-opacity: 0; fill-rule: nonzero; opacity: 1;"  x="-150" y="-150" rx="0" ry="0" width="300" height="300" />
</g>
		<g transform="matrix(4.3 0 0 4.3 0 51.29)" id="c1acd11f-3a9e-4456-8865-da252f640c91"  >
<path style="stroke: none; stroke-width: 1; stroke-dasharray: none; stroke-linecap: butt; stroke-dashoffset: 0; stroke-linejoin: miter; stroke-miterlimit: 4; fill: rgb(0,0,0); fill-rule: nonzero; opacity: 1;"  transform=" translate(-31.44, -8.74)" d="M 7.14 13.5 L 7.14 12.64 L 2.07 12.64 L 2.07 8.89 L 6.73 8.89 L 6.73 8.04 L 2.07 8.04 L 2.07 4.68 L 6.96 4.68 L 6.96 3.82 L 1.19 3.82 L 1.19 13.5 Z M 12.15 13.5 L 15.92 3.82 L 14.94 3.82 C 12.29 10.72 11.96 11.65 11.7 12.36 C 11.45 11.62 11.1 10.7 8.44 3.82 L 7.46 3.82 L 11.23 13.5 Z M 20.93 13.5 C 20.93 7.24 20.93 5.61 20.92 5.01 C 21.29 6.05 21.6 6.8 24.33 13.5 L 25.09 13.5 C 27.83 6.79 28.11 6.06 28.5 5.03 L 28.5 13.5 L 29.37 13.5 L 29.37 3.82 L 28.06 3.82 C 25.33 10.53 25.06 11.26 24.74 12.15 C 24.4 11.24 24.09 10.5 21.36 3.82 L 20.05 3.82 L 20.05 13.5 Z M 32.54 13.5 L 32.54 6.51 L 31.7 6.51 L 31.7 13.5 Z M 32.59 5.11 L 32.59 3.82 L 31.64 3.82 L 31.64 5.11 Z M 35.62 13.5 L 35.62 9.95 C 35.62 9.14 35.7 8.6 35.95 8.15 C 36.22 7.67 36.76 7.13 37.6 7.13 C 37.84 7.13 38.09 7.17 38.3 7.22 L 38.47 6.43 C 38.23 6.36 37.93 6.3 37.67 6.3 C 36.51 6.3 35.8 7.11 35.62 7.94 L 35.62 6.51 L 34.78 6.51 L 34.78 13.5 Z M 40.36 13.5 L 40.36 9.95 C 40.36 9.14 40.45 8.6 40.7 8.15 C 40.96 7.67 41.51 7.13 42.35 7.13 C 42.59 7.13 42.84 7.17 43.05 7.22 L 43.22 6.43 C 42.98 6.36 42.67 6.3 42.42 6.3 C 41.26 6.3 40.54 7.11 40.36 7.94 L 40.36 6.51 L 39.52 6.51 L 39.52 13.5 Z M 50.39 10.01 C 50.39 7.7 48.89 6.33 47.01 6.33 C 45.08 6.33 43.46 7.71 43.46 9.98 C 43.46 12.26 44.86 13.66 46.98 13.66 C 48.85 13.66 50.39 12.26 50.39 10.01 Z M 49.52 10 C 49.52 11.87 48.3 12.87 46.98 12.87 C 45.53 12.87 44.34 11.87 44.34 9.95 C 44.34 8.05 45.61 7.13 47 7.13 C 48.31 7.13 49.52 8.06 49.52 10 Z M 52.91 13.5 L 52.91 9.95 C 52.91 9.14 52.99 8.6 53.24 8.15 C 53.51 7.67 54.05 7.13 54.89 7.13 C 55.13 7.13 55.38 7.17 55.59 7.22 L 55.76 6.43 C 55.52 6.36 55.22 6.3 54.96 6.3 C 53.8 6.3 53.09 7.11 52.91 7.94 L 52.91 6.51 L 52.07 6.51 L 52.07 13.5 Z M 55.92 12.43 C 56.56 13.17 57.68 13.66 58.93 13.66 C 60.65 13.66 61.68 12.91 61.68 11.62 C 61.68 10.47 61.03 9.95 59.61 9.66 L 58.7 9.48 C 57.47 9.24 57.22 8.89 57.22 8.25 C 57.22 7.71 57.64 7.13 58.91 7.13 C 59.74 7.13 60.41 7.38 60.98 7.88 L 61.52 7.2 C 60.86 6.58 59.98 6.33 58.98 6.33 C 57.19 6.33 56.34 7.29 56.34 8.32 C 56.34 9.41 56.95 9.98 58.21 10.23 L 59.08 10.42 C 60.45 10.7 60.83 11.06 60.83 11.69 C 60.83 12.32 60.35 12.88 59.01 12.88 C 58.06 12.88 57.13 12.53 56.5 11.77 Z" stroke-linecap="round" />
</g>
		<g transform="matrix(2.22 0 0 2.22 0 -30.15)" id="5"  >
<path style="stroke: none; stroke-width: 1; stroke-dasharray: none; stroke-linecap: butt; stroke-dashoffset: 0; stroke-linejoin: miter; stroke-miterlimit: 4; fill: rgb(71,98,90); fill-rule: nonzero; opacity: 1;"  transform=" translate(-33.51, -33.59)" d="M 39.4 14.5 H 17.1 c -1.7 0 -3.3 0.8 -4.3 2.1 l -11.3 15 c -1.6 2.1 -1.4 5.2 0.5 7 l 7.2 7.2 c 1 1 2.4 1.6 3.8 1.6 h 26.3 c 3 0 5.4 -2.4 5.4 -5.4 V 19.9 c 0.1 -3 -2.3 -5.4 -5.3 -5.4 z M 39.3 41 c 0 0.5 -0.4 1 -1 1 H 13.5 c -0.3 0 -0.5 -0.1 -0.7 -0.3 l -6.3 -6.3 c -0.4 -0.4 -0.4 -0.9 -0.1 -1.3 l 10.4 -13.8 c 0.2 -0.3 0.5 -0.4 0.8 -0.4 h 20.7 c 0.6 0 1 0.4 1 1 V 41 z M 66 28.4 l -8.9 -5.2 c -0.4 -0.2 -0.9 -0.2 -1.2 0.2 l -4.5 4.7 l -4.5 -3.5 v 14 l 2.9 2.3 l -0.9 10.7 c -0.1 0.7 0.7 1.3 1.4 1 l 11.4 -5.1 c 0.3 -0.1 0.5 -0.4 0.6 -0.7 l 4.3 -17.2 c 0 -0.5 -0.2 -1 -0.6 -1.2 z" stroke-linecap="round" />
</g>
		<g transform="matrix(2.22 0 0 2.22 -28.61 -38.77)" id="5"  >
<path style="stroke: none; stroke-width: 1; stroke-dasharray: none; stroke-linecap: butt; stroke-dashoffset: 0; stroke-linejoin: miter; stroke-miterlimit: 4; fill: rgb(71,98,90); fill-rule: nonzero; opacity: 1;"  transform=" translate(-20.6, -29.7)" d="M 17 31.9 l -0.9 0.9 c -0.4 0.4 -0.4 1 0 1.4 c 0.4 0.4 1 0.4 1.4 0 l 0.9 -0.9 c 0.4 -0.4 0.4 -1 0 -1.4 s -1 -0.4 -1.4 0 z M 23.7 25.2 l -4.1 4.1 c -0.4 0.4 -0.4 1 0 1.4 c 0.4 0.4 1 0.4 1.4 0 l 4.1 -4.1 c 0.4 -0.4 0.4 -1 0 -1.4 s -1 -0.4 -1.4 0 z" stroke-linecap="round" />
</g>
</g>
</g>
</svg>